Coordinates
version=1
nRows=6
nColumns=36
inDegrees=yes

Units are S.I. units (second, meters, Newtons, ...)
If the header above contains a line with 'inDegrees', this indicates whether rotational values are in degrees (yes) or radians (no).

endheader
time	pelvis_tilt	pelvis_list	pelvis_rotation	pelvis_tx	pelvis_ty	pelvis_tz	hip_flexion_r	hip_adduction_r	hip_rotation_r	knee_angle_r	knee_angle_r_beta	ankle_angle_r	subtalar_angle_r	mtp_angle_r	hip_flexion_l	hip_adduction_l	hip_rotation_l	knee_angle_l	knee_angle_l_beta	ankle_angle_l	subtalar_angle_l	mtp_angle_l	lumbar_extension	lumbar_bending	lumbar_rotation	arm_flex_r	arm_add_r	arm_rot_r	elbow_flex_r	pro_sup_r	arm_flex_l	arm_add_l	arm_rot_l	elbow_flex_l	pro_sup_l
      1.64583330	      1.87314100	     -1.23202459	      1.89035800	     -0.98349837	      1.24337505	     -0.05821048	     -1.88309972	      1.76446601	      0.12805959	      6.65076920	      0.11607782	      7.99097218	    -12.85458757	     -7.49999987	     -1.65425232	     -2.00898801	      0.06256941	      7.01301997	      0.12240029	      8.85074098	     -8.12884696	     -7.49999987	    -15.81000205	      2.43053920	     -0.00669776	     -0.15726272	    -11.02962271	      1.04771003	     30.31410691	     62.28430196	      1.82055102	    -13.01595534	     16.39188551	     28.04323549	     67.15942673
      1.65000000	      1.75452175	     -1.26777039	      1.96634411	     -0.98312455	      1.24621252	     -0.05807850	     -1.71869540	      1.84666281	      0.22612194	      6.86190622	      0.11976286	      8.07507810	    -12.93831806	     -7.49999987	     -1.40867635	     -2.04228352	      0.17798799	      7.12674449	      0.12438516	      9.08607156	     -7.91577928	     -7.49999987	    -15.76132506	      2.46709603	     -0.03152821	     -0.27312714	    -11.04831538	      0.99909151	     29.94720204	     62.25474197	      1.68476574	    -13.03257413	     16.44320453	     27.87106863	     67.48350091
      1.65416670	      1.67775740	     -1.28968462	      2.01687374	     -0.98367475	      1.24453751	     -0.05889170	     -1.52438649	      1.87224474	      0.26174862	      7.10440087	      0.12399519	      8.27636563	    -13.03995508	     -7.49999987	     -1.19164691	     -2.05457533	      0.23364286	      7.27708880	      0.12700916	      9.31136790	     -7.91327947	     -7.49999987	    -15.83339252	      2.51471634	     -0.04059049	     -0.47502063	    -11.14257624	      0.89980163	     29.94209037	     62.14523909	      1.51091971	    -13.08472158	     16.46247279	     27.97621810	     67.44416106
      1.65833330	      1.59494138	     -1.29313604	      2.09147772	     -0.98511136	      1.25191455	     -0.05820426	     -1.44219008	      1.91688971	      0.34383254	      7.16834088	      0.12511115	      8.24154001	    -12.95157128	     -7.49999987	     -1.01107317	     -2.04653136	      0.39410047	      7.29558274	      0.12733194	      9.19709021	     -7.80007844	     -7.49999987	    -15.92485045	      2.52499966	     -0.06763675	     -0.60350941	    -11.16441562	      0.89826279	     29.84567892	     62.14732082	      1.42520805	    -13.12002247	     16.49062902	     27.92612692	     67.49175482
      1.66250000	      1.45762795	     -1.30391223	      2.22526308	     -0.98531908	      1.24855402	     -0.05848328	     -1.25248843	      1.93403868	      0.15777319	      7.23824945	      0.12633128	      8.43529106	    -12.76383655	     -7.49999987	     -0.73670680	     -2.02127639	      0.64652644	      7.35952709	      0.12844798	      9.15329614	     -7.99774928	     -7.49999987	    -15.96265449	      2.56475989	     -0.20217608	     -0.72355671	    -11.11786497	      0.58191364	     29.68100100	     61.94701428	      1.20708511	    -13.13640780	     16.19914863	     28.01027977	     67.32415086
      1.66666670	      1.20492156	     -1.30752319	      2.18614020	     -0.98516553	      1.24816821	     -0.05848607	     -0.86956779	      1.94437940	      0.34581597	      7.37720848	      0.12875658	      8.36649954	    -12.95215877	     -7.49999987	     -0.39027952	     -2.01361514	      0.58656832	      7.37739390	      0.12875981	      9.14134496	     -7.79352287	     -7.49999987	    -15.75579704	      2.55343959	     -0.10381279	     -0.68985713	    -11.14398313	      0.90146917	     28.90728728	     61.87371417	      1.29017294	    -13.22232130	     17.20171212	     27.47650346	     67.69299790
